<svg xmlns="http://www.w3.org/2000/svg" width="100" height="100" viewBox="0 0 100 100">
  <path fill="#64C7F5" d="M50 0C22.386 0 0 22.386 0 50s22.386 50 50 50 50-22.386 50-50S77.614 0 50 0zm0 93.75c-24.086 0-43.75-19.664-43.75-43.75S25.914 6.25 50 6.25 93.75 25.914 93.75 50 74.086 93.75 50 93.75z"/>
  <path fill="#61DAFB" d="M50 12.5c-20.5 0-37.5 16.5-37.5 37.5S29.5 87.5 50 87.5 87.5 71 87.5 50 70.5 12.5 50 12.5zm0 68.75c-17.5 0-31.25-14.25-31.25-31.25S32.5 18.75 50 18.75 81.25 33 81.25 50 67.5 81.25 50 81.25z"/>
  <path fill="#FFFFFF" d="M50 25c-13.75 0-25 11.25-25 25s11.25 25 25 25 25-11.25 25-25-11.25-25-25-25zm0 43.75c-10.25 0-18.75-8.5-18.75-18.75S39.75 31.5 50 31.5 68.75 40 68.75 50 60.25 68.75 50 68.75z"/>
</svg>