<svg xmlns="http://www.w3.org/2000/svg" viewBox="0 0 841.9 595.3">
  <g fill="#61DAFB">
    <path d="M420.9 0C188.5 0 0 188.5 0 420.9c0 232.4 188.5 420.9 420.9 420.9 232.4 0 420.9-188.5 420.9-420.9C841.8 188.5 653.3 0 420.9 0zm0 793.8c-205.2 0-372.9-167.7-372.9-372.9S215.7 47.9 420.9 47.9 793.8 215.6 793.8 420.9 626.1 793.8 420.9 793.8z"/>
    <path d="M420.9 0C188.5 0 0 188.5 0 420.9c0 232.4 188.5 420.9 420.9 420.9 232.4 0 420.9-188.5 420.9-420.9C841.8 188.5 653.3 0 420.9 0zm0 793.8c-205.2 0-372.9-167.7-372.9-372.9S215.7 47.9 420.9 47.9 793.8 215.6 793.8 420.9 626.1 793.8 420.9 793.8z"/>
    <path d="M420.9 0C188.5 0 0 188.5 0 420.9c0 232.4 188.5 420.9 420.9 420.9 232.4 0 420.9-188.5 420.9-420.9C841.8 188.5 653.3 0 420.9 0zm0 793.8c-205.2 0-372.9-167.7-372.9-372.9S215.7 47.9 420.9 47.9 793.8 215.6 793.8 420.9 626.1 793.8 420.9 793.8z"/>
  </g>
</svg>